<svg xmlns="http://www.w3.org/2000/svg" xmlns:xlink="http://www.w3.org/1999/xlink" version="1.1" x="0px" y="0px" viewBox="0 0 20 25" enable-background="new 0 0 20 20" xml:space="preserve"><path fill="#000000" d="M19.7,0.8L17.4,0c-0.2-0.1-0.4,0-0.5,0.2l-4.8,12.4c-0.1,0.2-0.2,0.3-0.4,0.3H2.2c-0.2,0-0.3,0.1-0.4,0.3  L0,19.5C-0.1,19.7,0.1,20,0.4,20h12.3c0.2,0,0.3-0.1,0.4-0.3L20,1.3C20.1,1.1,19.9,0.8,19.7,0.8z M6,18H2.5l0.9-3H7L6,18z"/><text x="0" y="35" fill="#000000" font-size="5px" font-weight="bold" font-family="'Helvetica Neue', Helvetica, Arial-Unicode, Arial, Sans-serif">Created by ProSymbols</text><text x="0" y="40" fill="#000000" font-size="5px" font-weight="bold" font-family="'Helvetica Neue', Helvetica, Arial-Unicode, Arial, Sans-serif">from the Noun Project</text></svg>